# xmcd
#
# Track frame offsets:
#	150
#	12504
#	25227
#	41515
#	56220
#	70177
#	82304
#	95663
#	109263
#	122981
#
# Disc length: 1785 seconds
#
# Revision: 1
# Processed by: cddbd v1.5.1PL2 Copyright (c) Steve Scherf et al.
# Submitted via: EasyCDDAExtractor 6.5.0.1
#
DISCID=9006f70a
DTITLE=Willie Nelson - Brand On My Heart
DYEAR=1985
DGENRE=Country
TTITLE0=The Golden Rocket (with Hank Snow)
TTITLE1=I've Been Everywhere (with Hank Snow)
TTITLE2=I Almost Lost My Mind (with Hank Snow)
TTITLE3=Caribbean (with Hank Snow)
TTITLE4=Brand On My Heart (with Hank Snow)
TTITLE5=I'm Movin' On (with Hank Snow)
TTITLE6=Send Me The Pillow You Dream On (with Hank Snow)
TTITLE7=I Don't Hurt Anymore (with Hank Snow)
TTITLE8=Now And Then A Fool Such As I (with Hank Snow)
TTITLE9=It Makes No Difference Now (with Hank Snow)
EXTD=
EXTT0=
EXTT1=
EXTT2=
EXTT3=
EXTT4=
EXTT5=
EXTT6=
EXTT7=
EXTT8=
EXTT9=
PLAYORDER=
